# xmcd CD Database Entry
#
# Track frame offsets:
# 150
# 23065
# 56502
# 75337
# 98085
# 117252
# 131837
# 146605
# 161140
# 183392
# 210420
# 239127
# 263117
# 301577
#
# Disc length: 4219 seconds
#
# Revision: 1
# Processed by: cddbd v1.4b41PL1 Copyright (c) Steve Scherf et al.
# Submitted via: tcd 2.0b
#
DISCID=b910790e
DTITLE=Lefty Jones Band - Red Sails
DYEAR=1900
DGENRE=
TTITLE0=Red Sails
TTITLE1=Jonesy
TTITLE2=Muddy Water
TTITLE3=Driver
TTITLE4=Devil In Heaven
TTITLE5=The Deacon Went Down
TTITLE6=Sweet Light
TTITLE7=Oh Papa
TTITLE8=Old Folks Dance
TTITLE9=The Rain Comes Down
TTITLE10=Me And My Friend
TTITLE11=The Moon Rules We Fools
TTITLE12=Shiny River
TTITLE13=Muddy Water
EXTD=
EXTT0=
EXTT1=
EXTT2=
EXTT3=
EXTT4=
EXTT5=
EXTT6=
EXTT7=
EXTT8=
EXTT9=
EXTT10=
EXTT11=
EXTT12=
EXTT13=
PLAYORDER=
